<svg version="1.1" id="Vlt-icon-sms" xmlns="http://www.w3.org/2000/svg" xmlns:xlink="http://www.w3.org/1999/xlink" x="0px" y="0px" viewBox="0 0 24 22" style="enable-background:new 0 0 24 22;" xml:space="preserve"><path id="path-1_1_" class="st0" d="M22,4.6c0-1.5-1.2-2.8-2.8-2.8H4.8C3.2,1.8,2,3.1,2,4.6V14c0,1.5,1.2,2.8,2.8,2.8h2.4v3.5&#xA;&#x9;&#x9;l2.9-3.2l0.4-0.3h8.8c1.5,0,2.8-1.3,2.8-2.8V4.6z M8.1,21.2c-0.8,0.9-2.3,0.3-2.3-0.9v-2.2H4.8c-2.3,0-4.1-1.8-4.1-4.1V4.6&#xA;&#x9;&#x9;c0-2.3,1.8-4.1,4.1-4.1h14.4c2.3,0,4.1,1.8,4.1,4.1V14c0,2.3-1.8,4.1-4.1,4.1H11L8.1,21.2z M7.6,7.4c0,0.1-0.1,0.1-0.1,0.1&#xA;&#x9;&#x9;s-0.1,0-0.2,0c-0.1,0-0.1,0-0.2-0.1C7,7.5,7,7.5,6.9,7.4c-0.1,0-0.2-0.1-0.3-0.1c-0.1,0-0.2-0.1-0.4-0.1c-0.2,0-0.4,0.1-0.6,0.2&#xA;&#x9;&#x9;C5.5,7.5,5.5,7.6,5.5,7.8c0,0.1,0,0.2,0.1,0.3c0.1,0.1,0.2,0.1,0.3,0.2C6,8.4,6.1,8.4,6.3,8.5c0.2,0,0.3,0.1,0.5,0.2&#xA;&#x9;&#x9;C6.9,8.7,7,8.8,7.2,8.8C7.3,8.9,7.5,9,7.6,9.1s0.2,0.3,0.3,0.4C8,9.8,8,10,8,10.2c0,0.3,0,0.5-0.1,0.8s-0.2,0.4-0.4,0.6&#xA;&#x9;&#x9;S7.1,11.9,6.8,12S6.3,12.1,6,12.1c-0.2,0-0.4,0-0.5-0.1c-0.2,0-0.4-0.1-0.5-0.2c-0.2-0.1-0.3-0.1-0.5-0.2c-0.2-0.1-0.3-0.2-0.4-0.3&#xA;&#x9;&#x9;l0.4-0.6c0,0,0.1-0.1,0.1-0.1c0.1,0,0.1,0,0.2,0c0.1,0,0.2,0,0.2,0.1c0.1,0.1,0.2,0.1,0.3,0.2c0.1,0.1,0.2,0.1,0.3,0.2&#xA;&#x9;&#x9;C5.7,11,5.8,11.1,6,11.1c0.2,0,0.4-0.1,0.6-0.2c0.1-0.1,0.2-0.3,0.2-0.5c0-0.1,0-0.2-0.1-0.3C6.6,10,6.5,9.9,6.4,9.8&#xA;&#x9;&#x9;C6.2,9.8,6.1,9.7,6,9.7S5.6,9.6,5.5,9.5C5.3,9.5,5.2,9.4,5,9.4S4.7,9.2,4.6,9.1C4.5,8.9,4.4,8.8,4.3,8.6C4.3,8.4,4.2,8.2,4.2,7.9&#xA;&#x9;&#x9;c0-0.2,0-0.4,0.1-0.6s0.2-0.4,0.4-0.6c0.2-0.2,0.4-0.3,0.6-0.4s0.5-0.1,0.8-0.1c0.2,0,0.3,0,0.5,0c0.2,0,0.3,0.1,0.5,0.1&#xA;&#x9;&#x9;c0.1,0.1,0.3,0.1,0.4,0.2s0.2,0.2,0.3,0.3L7.6,7.4z M11.8,9.4c0.1,0.1,0.1,0.2,0.2,0.3s0.1,0.2,0.1,0.3c0-0.1,0.1-0.2,0.1-0.3&#xA;&#x9;&#x9;c0-0.1,0.1-0.2,0.2-0.3l1.5-3c0-0.1,0.1-0.1,0.1-0.1c0,0,0.1,0,0.1-0.1c0,0,0.1,0,0.1,0c0,0,0.1,0,0.2,0h1v5.9h-1.2V8.7&#xA;&#x9;&#x9;c0-0.2,0-0.3,0-0.5l-1.5,3c0,0.1-0.1,0.2-0.2,0.2c-0.1,0-0.2,0.1-0.3,0.1H12c-0.1,0-0.2,0-0.3-0.1c-0.1,0-0.1-0.1-0.2-0.2l-1.5-3&#xA;&#x9;&#x9;c0,0.1,0,0.2,0,0.3c0,0.1,0,0.2,0,0.3v3.4H8.9V6.2h1c0.1,0,0.1,0,0.2,0c0,0,0.1,0,0.1,0s0.1,0,0.1,0.1c0,0,0.1,0.1,0.1,0.1&#xA;&#x9;&#x9;L11.8,9.4z M19.6,7.4c0,0.1-0.1,0.1-0.1,0.1c0,0-0.1,0-0.2,0c-0.1,0-0.1,0-0.2-0.1c-0.1,0-0.1-0.1-0.2-0.1c-0.1,0-0.2-0.1-0.3-0.1&#xA;&#x9;&#x9;c-0.1,0-0.2-0.1-0.4-0.1c-0.2,0-0.4,0.1-0.6,0.2s-0.2,0.3-0.2,0.4c0,0.1,0,0.2,0.1,0.3c0.1,0.1,0.2,0.1,0.3,0.2&#xA;&#x9;&#x9;c0.1,0.1,0.3,0.1,0.4,0.2c0.2,0,0.3,0.1,0.5,0.2c0.2,0.1,0.3,0.1,0.5,0.2c0.2,0.1,0.3,0.2,0.4,0.3s0.2,0.3,0.3,0.4&#xA;&#x9;&#x9;C20,9.8,20,10,20,10.2c0,0.3,0,0.5-0.1,0.8s-0.2,0.4-0.4,0.6c-0.2,0.2-0.4,0.3-0.6,0.4s-0.5,0.2-0.9,0.2c-0.2,0-0.4,0-0.5-0.1&#xA;&#x9;&#x9;c-0.2,0-0.4-0.1-0.5-0.2c-0.2-0.1-0.3-0.1-0.5-0.2c-0.2-0.1-0.3-0.2-0.4-0.3l0.4-0.6c0,0,0.1-0.1,0.1-0.1c0.1,0,0.1,0,0.2,0&#xA;&#x9;&#x9;c0.1,0,0.2,0,0.2,0.1c0.1,0.1,0.2,0.1,0.3,0.2s0.2,0.1,0.3,0.2c0.1,0.1,0.3,0.1,0.5,0.1c0.2,0,0.4-0.1,0.6-0.2&#xA;&#x9;&#x9;c0.1-0.1,0.2-0.3,0.2-0.5c0-0.1,0-0.2-0.1-0.3c-0.1-0.1-0.2-0.2-0.3-0.2c-0.1-0.1-0.3-0.1-0.4-0.1s-0.3-0.1-0.5-0.1&#xA;&#x9;&#x9;S17.2,9.4,17,9.4s-0.3-0.2-0.4-0.3c-0.1-0.1-0.2-0.3-0.3-0.5c-0.1-0.2-0.1-0.4-0.1-0.7c0-0.2,0-0.4,0.1-0.6s0.2-0.4,0.4-0.6&#xA;&#x9;&#x9;c0.2-0.2,0.4-0.3,0.6-0.4c0.2-0.1,0.5-0.1,0.8-0.1c0.2,0,0.3,0,0.5,0c0.2,0,0.3,0.1,0.5,0.1s0.3,0.1,0.4,0.2&#xA;&#x9;&#x9;c0.1,0.1,0.2,0.2,0.3,0.3L19.6,7.4z"/></svg>