<svg version="1.1" id="Vlt-icon-receptionist" xmlns="http://www.w3.org/2000/svg" xmlns:xlink="http://www.w3.org/1999/xlink" x="0px" y="0px" viewBox="0 0 24 24" style="enable-background:new 0 0 24 24;" xml:space="preserve"><path id="path-1_1_" class="st0" d="M16.9,17.6c-1,0.5-2,0.9-3,1.2c-0.2,0.5-0.6,0.9-1.2,0.9h-1.3c-0.7,0-1.3-0.6-1.3-1.3&#xA;&#x9;s0.6-1.3,1.3-1.3h1.3c0.4,0,0.7,0.2,1,0.4c1.4-0.3,2.9-1,4-1.9l0.1-0.2c0,0,0,0,0-0.1c0,0,0,0,0-0.1l0.2-0.9v-2.8&#xA;&#x9;c-2.4,0-4.7-0.7-6.6-2.1C10.6,9,9.9,8.3,9.3,7.6C8.9,9,8.1,10,6.9,10.7c-0.2,0.1-0.6,0.3-0.9,0.5c0,0.1,0,0.1,0,0.2v3l0.4,1.5&#xA;&#x9;c0,0,0,0,0,0c1,3.2,3.2,5.2,5.6,5.2C14,21.1,15.8,19.8,16.9,17.6z M18.8,16.4c-1.1,3.6-3.7,6-6.8,6c-3,0-5.6-2.4-6.8-6&#xA;&#x9;c-0.5-0.1-1.1-0.5-1.6-1.3c-0.1-0.1-0.2-0.3-0.2-0.5l-0.3-2.8c0-0.4,0.1-0.8,0.3-1c0-0.3,0-0.5,0-0.8c0-4.8,3.8-8.6,8.6-8.6&#xA;&#x9;s8.6,3.9,8.6,8.6c0,0.3,0,0.5,0,0.8c0.2,0.3,0.4,0.6,0.3,1l-0.3,2.8c0,0.2-0.1,0.3-0.2,0.5C19.8,15.8,19.3,16.3,18.8,16.4z&#xA;&#x9; M4.7,10.4h0.2C5.4,10.1,6,9.8,6.2,9.7c1.4-0.9,2.1-2.1,2.1-4c0,0,0,0,0,0c0-0.8,1.2-0.8,1.2,0c0,0,0,0,0,0c0,0.4,1.1,1.8,2.6,2.8&#xA;&#x9;c2,1.4,4.5,2.1,7.2,1.7c0-0.1,0-0.2,0-0.3c0-4.1-3.3-7.4-7.3-7.4S4.7,5.9,4.7,10C4.7,10.1,4.7,10.3,4.7,10.4z M8.9,13.7&#xA;&#x9;c-0.3,0-0.6-0.3-0.6-0.6s0.3-0.6,0.6-0.6h1.2c0.3,0,0.6,0.3,0.6,0.6s-0.3,0.6-0.6,0.6H8.9z M13.8,13.7c-0.3,0-0.6-0.3-0.6-0.6&#xA;&#x9;s0.3-0.6,0.6-0.6h1.2c0.3,0,0.6,0.3,0.6,0.6s-0.3,0.6-0.6,0.6H13.8z"/></svg>