<svg version="1.1" id="Vlt-icon-drag" xmlns="http://www.w3.org/2000/svg" xmlns:xlink="http://www.w3.org/1999/xlink" x="0px" y="0px" viewBox="0 0 24 24" style="enable-background:new 0 0 24 24;" xml:space="preserve"><path id="path-1_1_" class="st0" d="M15.8,6.4c-1.2,0-2.2-1-2.2-2.2s1-2.2,2.2-2.2S18,3,18,4.2S17,6.4,15.8,6.4z M15.8,14.2&#xA;&#x9;&#x9;c-1.2,0-2.2-1-2.2-2.2s1-2.2,2.2-2.2s2.2,1,2.2,2.2S17,14.2,15.8,14.2z M15.8,22c-1.2,0-2.2-1-2.2-2.2c0-1.2,1-2.2,2.2-2.2&#xA;&#x9;&#x9;s2.2,1,2.2,2.2C18,21,17,22,15.8,22z M8.2,6.4C7,6.4,6,5.4,6,4.2S7,2,8.2,2s2.2,1,2.2,2.2S9.4,6.4,8.2,6.4z M8.2,14.2&#xA;&#x9;&#x9;C7,14.2,6,13.2,6,12s1-2.2,2.2-2.2s2.2,1,2.2,2.2S9.4,14.2,8.2,14.2z M8.2,22C7,22,6,21,6,19.8c0-1.2,1-2.2,2.2-2.2s2.2,1,2.2,2.2&#xA;&#x9;&#x9;C10.4,21,9.4,22,8.2,22z"/></svg>