<svg version="1.1" id="Vlt-icon-keypad-solid" xmlns="http://www.w3.org/2000/svg" xmlns:xlink="http://www.w3.org/1999/xlink" x="0px" y="0px" viewBox="0 0 24 24" style="enable-background:new 0 0 24 24;" xml:space="preserve"><path id="path-1_1_" class="st0" d="M6,5C4.9,5,4,4.1,4,3s0.9-2,2-2s2,0.9,2,2S7.1,5,6,5z M12,5c-1.1,0-2-0.9-2-2s0.9-2,2-2&#xA;&#x9;&#x9;s2,0.9,2,2S13.1,5,12,5z M18,5c-1.1,0-2-0.9-2-2s0.9-2,2-2s2,0.9,2,2S19.1,5,18,5z M6,11c-1.1,0-2-0.9-2-2s0.9-2,2-2s2,0.9,2,2&#xA;&#x9;&#x9;S7.1,11,6,11z M12,11c-1.1,0-2-0.9-2-2s0.9-2,2-2s2,0.9,2,2S13.1,11,12,11z M18,11c-1.1,0-2-0.9-2-2s0.9-2,2-2s2,0.9,2,2&#xA;&#x9;&#x9;S19.1,11,18,11z M6,17.1c-1.1,0-2-0.9-2-2s0.9-2,2-2s2,0.9,2,2S7.1,17.1,6,17.1z M12,17.1c-1.1,0-2-0.9-2-2s0.9-2,2-2s2,0.9,2,2&#xA;&#x9;&#x9;S13.1,17.1,12,17.1z M18,17.1c-1.1,0-2-0.9-2-2s0.9-2,2-2s2,0.9,2,2S19.1,17.1,18,17.1z M12,23c-1.1,0-2-0.9-2-2s0.9-2,2-2&#xA;&#x9;&#x9;s2,0.9,2,2S13.1,23,12,23z"/></svg>