<svg version="1.1" id="Vlt-icon-chat-2" xmlns="http://www.w3.org/2000/svg" xmlns:xlink="http://www.w3.org/1999/xlink" x="0px" y="0px" viewBox="0 0 24 24" style="enable-background:new 0 0 24 24;" xml:space="preserve"><g><path class="st0" d="M14.8,17.8H8.3c-0.2,0-0.3,0.1-0.5,0.2l-3.4,3.4v-3c0-0.4-0.3-0.7-0.7-0.7c-1.2,0-2.1-0.9-2.1-2.1V7.5&#xA;&#x9;&#x9;c0-0.6,0.3-1.2,0.7-1.6C2.6,5.7,2.6,5.3,2.4,5C2.2,4.8,1.7,4.8,1.5,5C0.8,5.6,0.3,6.5,0.3,7.5v8.2c0,1.6,1.2,3,2.7,3.3v4&#xA;&#x9;&#x9;c0,0.6,0.7,0.9,1.1,0.5l4.4-4.4h6.3c0.4,0,0.7-0.3,0.7-0.7S15.2,17.8,14.8,17.8z"/><path class="st0" d="M20.3,0.3H7.5c-1.9,0-3.4,1.5-3.4,3.4v8.2c0,1.9,1.5,3.4,3.4,3.4h7.9l4.4,4.4c0.4,0.4,1.1,0.1,1.1-0.5v-4&#xA;&#x9;&#x9;c1.6-0.3,2.7-1.7,2.7-3.3V3.7C23.6,1.9,22.1,0.3,20.3,0.3z M22.3,11.9c0,1.2-0.9,2.1-2.1,2.1c-0.4,0-0.6,0.3-0.6,0.7v3l-3.4-3.4&#xA;&#x9;&#x9;C16,14.1,15.9,14,15.7,14H7.5c-1.2,0-2.1-0.9-2.1-2.1V3.7c0-1.2,0.9-2.1,2.1-2.1h12.8c1.2,0,2.1,0.9,2.1,2.1V11.9z"/><circle class="st0" cx="9.7" cy="7.9" r="1.2"/><circle class="st0" cx="13.7" cy="7.9" r="1.2"/><circle class="st0" cx="17.8" cy="7.9" r="1.2"/></g></svg>