<svg version="1.1" id="Vlt-icon-ai-4" xmlns="http://www.w3.org/2000/svg" xmlns:xlink="http://www.w3.org/1999/xlink" x="0px" y="0px" viewBox="0 0 24 24" style="enable-background:new 0 0 24 24;" xml:space="preserve"><path id="path-1_1_" class="st0" d="M19.3,17c-0.3,0.3-0.6,0.9-0.6,1.7c0,0.5-0.1,0.9-0.4,1.1C18,20.1,17.5,20.1,17,20&#xA;&#x9;c-1.1-0.3-4.6-1.9-4.7-1.9c-0.3-0.2-0.7,0-0.9,0.3c-0.2,0.3,0,0.7,0.3,0.8c0.1,0,1.4,0.6,2.6,1.2L14,21.7H6.5&#xA;&#x9;c0.1-0.7,0.3-1.8,0.4-3.5c0.1-1.5-0.7-2.5-1.5-3.5c-1-1.3-2.1-2.7-2.1-5.3c0-5.3,5-7.2,9.3-7.2c3.9,0,6.5,2.5,7.3,4.8&#xA;&#x9;c0.7,2.1-0.1,3.4-0.1,3.5c-0.1,0.2-0.1,0.3-0.1,0.5l0.9,3.4c0.1,0.2,0.1,0.3,0.1,0.4c-0.1,0-0.1,0-0.2,0c-0.3,0-0.7,0-1,0.3&#xA;&#x9;C19.1,15.6,19.2,16.4,19.3,17z M21.9,14.1L21,11c0.3-0.6,0.9-2.2,0.1-4.3c-1-2.7-4.1-5.6-8.6-5.6C7.3,1,2,3.6,2,9.5&#xA;&#x9;c0,3.1,1.3,4.7,2.4,6.1c0.8,1,1.3,1.7,1.2,2.6c-0.2,2.7-0.5,4.1-0.5,4.1c0,0.2,0,0.4,0.1,0.5C5.4,22.9,5.6,23,5.7,23h8.7&#xA;&#x9;c0.3,0,0.5-0.2,0.6-0.5l0.5-1.7c0.4,0.2,0.8,0.3,1,0.4c0.9,0.3,1.7,0.1,2.4-0.3c0.4-0.3,0.9-0.9,0.9-2.2c0-0.6,0.5-1.1,0.5-1.1&#xA;&#x9;c0.2-0.2,0.2-0.4,0.2-0.6c-0.1-0.3-0.1-0.7-0.1-0.9h0.1c0.3,0,0.9,0,1.2-0.4C22.1,15.2,22,14.5,21.9,14.1z"/><g><path id="path-3_1_" class="st0" d="M11.2,8.8l-0.5,1.7h1.9L13,8.8H11.2z M11.4,7.8h1.9l0.9-3.2L15,4.7l-0.9,3.1h1.9v1h-2.2&#xA;&#x9;&#x9;l-0.5,1.7h2.3v1h-2.5l-0.8,2.8l-0.8-0.1l0.7-2.7h-1.9l-0.8,2.8l-0.8-0.1l0.7-2.7H7.8v-1h2.1l0.5-1.7H8.2v-1h2.4l0.9-3.2l0.8,0.1&#xA;&#x9;&#x9;L11.4,7.8z"/></g></svg>