<?xml version="1.0" encoding="UTF-8"?>
<svg width="27px" height="24px" viewBox="0 0 27 24" version="1.1" xmlns="http://www.w3.org/2000/svg" xmlns:xlink="http://www.w3.org/1999/xlink">
    <!-- Generator: Sketch 56.3 (81716) - https://sketch.com -->
    <title>Vonage V white</title>
    <desc>Created with Sketch.</desc>
    <g id="Symbols" stroke="none" stroke-width="1" fill="none" fill-rule="evenodd">
        <g id="Side-Navigation/Collapsed/Dark/Fixed-Blocks/Logo/Nexmo" transform="translate(-20.000000, -15.000000)" fill="#FFFFFF">
            <path d="M25.332135,15 L30.4385941,26.56044 L27.9087671,32.63304 C27.8524363,32.7684 27.664628,32.76972 27.6065332,32.63496 L20,15 L25.332135,15 Z M41.573902,15 L47,15 C47,15 38.9659881,33.79644 38.0051901,35.60568 C37.1597584,37.19748 35.6342417,39 33.5188396,39 L28.6355867,39 C28.6191226,39 28.6057161,38.98632 28.6057161,38.96952 C28.6057161,38.95452 28.6164178,38.9418 28.6308827,38.93952 C30.1912092,38.68908 31.0344065,37.90752 32.3067289,35.85996 C33.4013565,34.09872 41.573902,15 41.573902,15 Z" id="Vonage-V-white"></path>
        </g>
    </g>
</svg>