<svg version="1.1" id="Brand-icon-sugarcrm" xmlns="http://www.w3.org/2000/svg" xmlns:xlink="http://www.w3.org/1999/xlink" x="0px" y="0px" viewBox="0 0 50 50" style="enable-background:new 0 0 50 50;" xml:space="preserve"><path d="M13.1,43.7c-5.7-2.3-8.8-3.7-9.2-4.2C3.3,38.8,3.3,38,3.4,25.7&#xA;&#x9;c0.1-11.2,0.2-13.1,0.6-13.4C4.6,12,22.4,19,23.4,20.1l0.7,0.7l-0.1,13.1L24,47.1l-1.1,0.1C22.1,47.2,19,46.1,13.1,43.7z"/><path d="M26.3,47c-0.1-0.1-0.2-6-0.2-13.1c0-10.9,0.1-13,0.5-13.6c0.6-0.8,18.1-7.9,19.2-7.8&#xA;&#x9;l0.7,0.1l0.1,13.1c0.1,12.1,0,13.1-0.5,13.8c-0.6,0.7-17.9,7.8-19,7.8C26.7,47.2,26.4,47.2,26.3,47z"/><path d="M14.5,14.6c-7.3-2.9-9.1-3.8-9.1-4.2c0-0.9,17.3-7.8,19.6-7.8c2.3,0,19.6,6.9,19.6,7.8&#xA;&#x9;c0,0.5-1.7,1.3-9.1,4.3c-6.4,2.6-9.5,3.6-10.4,3.6C24.1,18.2,20.7,17,14.5,14.6z"/></svg>