<svg version="1.1" id="Brand-icon-laravel" xmlns="http://www.w3.org/2000/svg" xmlns:xlink="http://www.w3.org/1999/xlink" x="0px" y="0px" viewBox="0 0 24 24" style="enable-background:new 0 0 24 24;" xml:space="preserve"><path d="M3.8,1C3.6,1,3.4,1,3.2,1.1C2.8,1.2,2.4,1.4,2.1,1.6C1.9,1.8,1.7,2,1.6,2.2C1.4,2.5,1.2,2.9,1.1,3.3&#xA;&#x9;c0,0.1,0.1,0.1,0.1,0.2c0.2,0.4,0.4,0.7,0.6,1.1l0.6,0.9C2.6,5.7,2.8,6,3,6.3l0.8,1.4C3.9,8,4.1,8.3,4.3,8.6C4.6,9,4.8,9.5,5.1,9.9&#xA;&#x9;l1,1.6C6.4,12,6.6,12.5,6.9,13l0,0.1c0,0,0.1,0,0.1,0c0.4-0.1,0.7-0.2,1.1-0.3c0.6-0.1,1.2-0.3,1.8-0.4l0.9-0.2&#xA;&#x9;c0.6-0.1,1.2-0.3,1.8-0.4c0.6-0.1,1.2-0.3,1.9-0.4c0.3-0.1,0.6-0.2,0.9-0.2c0.6-0.1,1.2-0.3,1.8-0.4l2-0.5l0.1,0l0-0.1l-0.5-0.8&#xA;&#x9;l-0.5-0.8l-0.6-0.8l-0.5-0.8l-0.5-0.8l-0.6-0.8c-0.2-0.3-0.4-0.5-0.5-0.8l-0.3-0.4c0-0.1-0.1-0.1-0.1-0.2c-0.1-0.2,0-0.3,0.1-0.4&#xA;&#x9;c0.1-0.1,0.1-0.1,0.2-0.1c0.1,0,0.2-0.1,0.4-0.1c0.2,0,0.5-0.1,0.7-0.1l0.8-0.1c0.2,0,0.3-0.1,0.5-0.1c0.2,0,0.5-0.1,0.7-0.1&#xA;&#x9;c0.2,0,0.4-0.1,0.7-0.1L20,2.7l0.5-0.1c0.2,0,0.4-0.1,0.6-0.1c0.2,0,0.5-0.1,0.7-0.1c0.1,0,0.3,0,0.4,0c0.1,0,0.2,0.1,0.3,0.1&#xA;&#x9;l0.1,0.1c0,0,0,0,0-0.1c-0.2-0.4-0.4-0.7-0.7-1c-0.3-0.2-0.6-0.4-1-0.5C20.8,1,20.5,1,20.3,1 M10.5,23C10.5,23,10.5,22.9,10.5,23&#xA;&#x9;c-0.3-0.5-0.6-1-0.8-1.5c-0.3-0.6-0.6-1.1-1-1.7c-0.3-0.6-0.7-1.2-1-1.8c-0.3-0.6-0.6-1.2-1-1.7c-0.2-0.4-0.4-0.7-0.6-1.1l-0.1-0.1&#xA;&#x9;l-0.1,0c-0.2,0-0.4,0.1-0.6,0.1c-0.3,0.1-0.5,0.1-0.8,0.2c-0.6,0.2-1.2,0.3-1.8,0.5c-0.6,0.2-1.2,0.3-1.8,0.5c0,0,0,0-0.1,0v3.7&#xA;&#x9;c0.1,0.1,0.1,0.1,0.1,0.1c0,0.1,0,0.2,0.1,0.3c0.1,0.4,0.2,0.8,0.5,1.1c0.3,0.5,0.8,0.9,1.4,1.1c0.2,0.1,0.4,0.1,0.6,0.2l0.2,0.1"/><path d="M1.7,14.4c0.7-0.2,1.4-0.3,2.1-0.5c0.3-0.1,0.6-0.1,0.9-0.2c0.2,0,0.3-0.1,0.5-0.1&#xA;&#x9;c0.1,0,0.1-0.1,0.1-0.2C5.1,13.2,5,13,4.9,12.8L4,11.3L3.1,9.7c-0.3-0.5-0.6-1-0.9-1.6C2,7.7,1.7,7.3,1.5,6.9&#xA;&#x9;C1.3,6.7,1.2,6.5,1.1,6.3c0,0,0.1-0.1-0.1-0.1v8.3c0,0,0.1,0,0.1,0C1.1,14.5,1.7,14.4,1.7,14.4z M22.9,20.3&#xA;&#x9;c-0.3,0.1-0.5,0.2-0.8,0.3c-0.6,0.2-1.2,0.4-1.8,0.7c-0.3,0.1-0.7,0.2-1,0.4c-0.7,0.2-1.4,0.5-2.1,0.7c-0.4,0.1-0.8,0.3-1.2,0.5&#xA;&#x9;c-0.1,0-0.2,0.2-0.3,0.2h4.6l0.1-0.1c0.1,0,0.2,0,0.3-0.1c0.5-0.1,0.9-0.3,1.3-0.6c0.3-0.2,0.5-0.5,0.7-0.8c0.2-0.3,0.3-0.7,0.4-1.1&#xA;&#x9;c0,0,0-0.1,0-0.1C22.9,20.3,22.9,20.3,22.9,20.3z M22.5,14.1c-0.2-0.3-0.4-0.6-0.6-0.8c-0.3-0.4-0.6-0.8-0.8-1.2&#xA;&#x9;c-0.1-0.2-0.2-0.3-0.3-0.5c0,0-0.1-0.1-0.1,0l0,0c-0.5,0.1-1,0.3-1.5,0.4L18,12.1c-0.6,0.1-1.2,0.3-1.8,0.4&#xA;&#x9;c-0.6,0.1-1.2,0.3-1.8,0.4l-1.9,0.5c-0.6,0.1-1.2,0.3-1.8,0.4L9,14.4c-0.3,0.1-0.6,0.2-0.9,0.2c0,0-0.1,0-0.1,0.1l0,0.1&#xA;&#x9;c0.3,0.5,0.5,0.9,0.8,1.4c0.3,0.5,0.6,1,0.9,1.5c0.3,0.6,0.7,1.1,1,1.7c0.2,0.3,0.4,0.6,0.6,1c0.2,0.4,0.4,0.7,0.6,1.1&#xA;&#x9;c0.1,0.1,0.1,0.2,0.2,0.3c0,0.1,0.1,0.1,0.2,0.2c0.1,0,0.2,0.1,0.2,0c0,0,0.1,0,0.1,0l0.2-0.1c0.6-0.2,1.1-0.4,1.7-0.6&#xA;&#x9;c0.4-0.2,0.9-0.3,1.3-0.5c0.4-0.1,0.9-0.3,1.3-0.4l1.3-0.4c0.4-0.2,0.9-0.3,1.3-0.5c0.5-0.2,1.1-0.4,1.6-0.6&#xA;&#x9;c0.5-0.2,1.1-0.4,1.6-0.5c0,0,0.1,0,0.1-0.1l0-0.1c0-1.1,0-2.2,0-3.3c0-0.1,0-0.1-0.1-0.2C22.8,14.5,22.6,14.3,22.5,14.1L22.5,14.1z&#xA;&#x9; M22.4,3.7c-0.1-0.2-0.3-0.2-0.5-0.2c-0.1,0-0.2,0-0.3,0.1c-0.3,0.1-0.6,0.1-0.8,0.2C20.4,3.8,20,3.9,19.6,4c-0.3,0.1-0.6,0.1-1,0.2&#xA;&#x9;l-1.3,0.2c-0.1,0-0.1,0-0.2,0c-0.1,0-0.1,0.1-0.1,0.1c0,0.1,0.1,0.1,0.1,0.2c0.3,0.4,0.5,0.7,0.8,1.1c0.4,0.5,0.7,1,1.1,1.5&#xA;&#x9;c0.3,0.4,0.6,0.9,0.9,1.3c0.2,0.3,0.5,0.7,0.7,1l0,0.1L23,9.2l0-0.1c0-1.5,0-3,0-4.5c0-0.1,0-0.1-0.1-0.2C22.8,4.2,22.6,4,22.4,3.7&#xA;&#x9;C22.4,3.8,22.4,3.7,22.4,3.7z M22.9,10.9c-0.3,0.1-0.6,0.2-1,0.2c0,0.1,0.9,1.3,1,1.4l0,0l0-0.1l0-0.5c0-0.3,0-0.6,0-0.9&#xA;&#x9;C23,11,23,11,22.9,10.9C23,10.9,22.9,10.9,22.9,10.9z"/></svg>