<svg version="1.1" id="Brand-icon-symfony-color" xmlns="http://www.w3.org/2000/svg" xmlns:xlink="http://www.w3.org/1999/xlink" x="0px" y="0px" viewBox="0 0 24 24" style="enable-background:new 0 0 24 24;" xml:space="preserve"><path style="fill:#1A171B;" d="M12,1C5.9,1,1,5.9,1,12s4.9,11,11,11s11-4.9,11-11S18.1,1,12,1z M17.9,7.4c-0.5,0-0.9-0.3-0.9-0.7&#xA;&#x9;c0-0.2,0-0.3,0.2-0.5c0.1-0.2,0.1-0.2,0.1-0.3c0-0.3-0.4-0.3-0.6-0.3c-1.7,0.1-2.1,2.3-2.4,4.1l-0.2,1c0.9,0.1,1.6,0,2-0.3&#xA;&#x9;c0.5-0.3-0.1-0.7-0.1-1.1c0.1-0.4,0.4-0.6,0.7-0.6c0.4,0,0.7,0.4,0.7,0.8c0,0.7-0.9,1.7-2.8,1.6c-0.2,0-0.4,0-0.6,0l-0.4,1.9&#xA;&#x9;c-0.3,1.5-0.7,3.5-2.2,5.2c-1.3,1.5-2.6,1.8-3.2,1.8c-1.1,0-1.8-0.6-1.8-1.3c0-0.7,0.6-1.2,1.1-1.2c0.6,0,1,0.4,1,0.9&#xA;&#x9;c0,0.4-0.2,0.5-0.3,0.6C8.1,19,8,19.1,8,19.3c0,0.1,0.1,0.2,0.3,0.2c0.5,0,0.8-0.2,1-0.4c1.1-0.9,1.5-2.4,2-5.2l0.1-0.7&#xA;&#x9;c0.2-0.9,0.4-1.9,0.7-3C11.3,9.7,10.9,9,9.9,8.7c-0.7-0.2-1.1,0-1.4,0.3c-0.4,0.4-0.2,1,0.1,1.4L9.1,11c0.7,0.8,1.1,1.4,0.9,2.2&#xA;&#x9;c-0.2,1.3-1.8,2.3-3.7,1.7c-1.6-0.5-1.9-1.6-1.7-2.2c0.2-0.6,0.6-0.7,1-0.5c0.5,0.1,0.6,0.7,0.5,1.1c0,0.1,0,0.1-0.1,0.2&#xA;&#x9;C6.1,13.7,6,13.8,6,14c-0.1,0.3,0.4,0.6,0.7,0.7c0.7,0.2,1.4-0.2,1.6-0.7C8.4,13.4,8,13,7.9,12.9l-0.7-0.7c-0.3-0.3-1-1.3-0.7-2.4&#xA;&#x9;C6.7,9.3,7,8.9,7.4,8.6C8.2,8,9.1,7.9,9.9,8.1c1.1,0.3,1.6,1.1,2.3,1.6c0.4-1.1,0.9-2.2,1.7-3.2c0.7-0.9,1.7-1.5,2.8-1.5&#xA;&#x9;c1.1,0,2,0.5,2,1.3C18.8,6.7,18.6,7.3,17.9,7.4L17.9,7.4z"/></svg>