<svg version="1.1" id="Brand-icon-salesforce" xmlns="http://www.w3.org/2000/svg" xmlns:xlink="http://www.w3.org/1999/xlink" x="0px" y="0px" viewBox="0 0 50 50" style="enable-background:new 0 0 50 50;" xml:space="preserve"><path d="M21.1,12.7c1.5-1.6,3.6-2.5,5.9-2.5c3.1,0,5.8,1.7,7.2,4.2&#xA;&#x9;c1.3-0.6,2.7-0.9,4.1-0.9c5.6,0,10.1,4.5,10.1,10.1s-4.5,10.1-10.1,10.1c-0.7,0-1.3-0.1-2-0.2c-1.9,3.4-6.1,4.7-9.6,3&#xA;&#x9;c-1.3,3.1-4.4,5.1-7.7,5.1c-3.5,0-6.7-2.2-7.9-5.5c-0.5,0.1-1.1,0.2-1.6,0.2c-4.3,0-7.8-3.5-7.8-7.8c0-2.8,1.5-5.4,3.9-6.8&#xA;&#x9;c-0.5-1.1-0.7-2.3-0.7-3.6c0-5,4.1-9,9.1-9C16.7,9.2,19.4,10.5,21.1,12.7z M8.4,26c0,0.1,0,0.1,0,0.1c0.1,0.1,0.2,0.1,0.3,0.2&#xA;&#x9;c0.5,0.3,0.9,0.3,1.4,0.3c1,0,1.6-0.5,1.6-1.3v0c0-0.8-0.7-1-1.3-1.2l-0.1,0c-0.5-0.2-0.9-0.3-0.9-0.6v0c0-0.3,0.2-0.5,0.6-0.5&#xA;&#x9;c0.4,0,0.9,0.1,1.2,0.3c0,0,0.1,0.1,0.1,0l0.2-0.5c0,0,0-0.1,0-0.1c-0.4-0.2-0.9-0.4-1.4-0.4H10c-0.9,0-1.5,0.5-1.5,1.3v0&#xA;&#x9;c0,0.8,0.7,1.1,1.3,1.2l0.1,0c0.5,0.1,0.9,0.3,0.9,0.6v0c0,0.3-0.3,0.5-0.7,0.5c-0.2,0-0.7,0-1.2-0.4c-0.1,0-0.1-0.1-0.2-0.1&#xA;&#x9;c0,0-0.1,0-0.1,0L8.4,26z M22.4,26c0,0.1,0,0.1,0,0.1c0.1,0.1,0.2,0.1,0.3,0.2c0.5,0.3,0.9,0.3,1.4,0.3c1,0,1.6-0.5,1.6-1.3v0&#xA;&#x9;c0-0.8-0.7-1-1.3-1.2l-0.1,0c-0.5-0.2-0.9-0.3-0.9-0.6v0c0-0.3,0.2-0.5,0.6-0.5c0.4,0,0.9,0.1,1.2,0.3c0,0,0.1,0.1,0.1,0l0.2-0.5&#xA;&#x9;c0,0,0-0.1,0-0.1c-0.4-0.2-0.9-0.4-1.4-0.4H24c-0.9,0-1.5,0.5-1.5,1.3v0c0,0.8,0.7,1.1,1.3,1.2l0.1,0c0.5,0.1,0.9,0.3,0.9,0.6v0&#xA;&#x9;c0,0.3-0.3,0.5-0.7,0.5c-0.2,0-0.7,0-1.2-0.4c-0.1,0-0.1-0.1-0.2-0.1c0,0-0.1,0-0.1,0L22.4,26z M32,24.4c0,0.5-0.1,0.8-0.3,1.1&#xA;&#x9;c-0.2,0.3-0.4,0.4-0.8,0.4c-0.4,0-0.6-0.1-0.8-0.4c-0.2-0.3-0.3-0.6-0.3-1.1c0-0.5,0.1-0.8,0.3-1.1c0.2-0.3,0.4-0.4,0.8-0.4&#xA;&#x9;c0.4,0,0.6,0.1,0.8,0.4C31.9,23.6,32,24,32,24.4z M32.8,23.6c-0.1-0.3-0.2-0.5-0.4-0.7c-0.2-0.2-0.4-0.4-0.6-0.5&#xA;&#x9;c-0.3-0.1-0.6-0.2-0.9-0.2c-0.3,0-0.6,0.1-0.9,0.2c-0.2,0.1-0.5,0.3-0.6,0.5c-0.2,0.2-0.3,0.4-0.4,0.7c-0.1,0.3-0.1,0.5-0.1,0.9&#xA;&#x9;c0,0.3,0,0.6,0.1,0.9c0.1,0.3,0.2,0.5,0.4,0.7c0.2,0.2,0.4,0.3,0.6,0.5c0.2,0.1,0.5,0.2,0.9,0.2s0.6-0.1,0.9-0.2s0.5-0.3,0.6-0.5&#xA;&#x9;c0.2-0.2,0.3-0.4,0.4-0.7c0.1-0.3,0.1-0.5,0.1-0.9C32.9,24.1,32.9,23.8,32.8,23.6z M39.4,25.8c0-0.1-0.1,0-0.1,0&#xA;&#x9;c-0.1,0-0.2,0.1-0.4,0.1c-0.1,0-0.3,0-0.4,0c-0.4,0-0.7-0.1-0.9-0.3c-0.2-0.2-0.3-0.6-0.3-1.1c0-0.4,0.1-0.8,0.3-1&#xA;&#x9;c0.2-0.3,0.5-0.4,0.9-0.4c0.3,0,0.6,0,0.8,0.1c0,0,0.1,0,0.1-0.1c0.1-0.2,0.1-0.3,0.2-0.5c0-0.1,0-0.1,0-0.1&#xA;&#x9;c-0.4-0.1-0.7-0.2-1.1-0.2c-0.3,0-0.6,0.1-0.9,0.2c-0.2,0.1-0.5,0.3-0.6,0.5c-0.2,0.2-0.3,0.4-0.4,0.7c-0.1,0.3-0.1,0.6-0.1,0.9&#xA;&#x9;c0,0.7,0.2,1.2,0.5,1.6c0.4,0.4,0.9,0.6,1.6,0.6c0.4,0,0.8-0.1,1.1-0.2c0,0,0.1,0,0-0.1L39.4,25.8L39.4,25.8z M40.8,24&#xA;&#x9;c0-0.3,0.1-0.5,0.2-0.6c0.2-0.3,0.4-0.4,0.8-0.4s0.6,0.1,0.8,0.4c0.1,0.2,0.2,0.4,0.2,0.6H40.8z M43.5,23.4&#xA;&#x9;c-0.1-0.2-0.2-0.4-0.3-0.6c-0.1-0.2-0.3-0.3-0.5-0.4c-0.2-0.1-0.5-0.2-0.8-0.2c-0.3,0-0.6,0.1-0.9,0.2c-0.2,0.1-0.5,0.3-0.6,0.5&#xA;&#x9;c-0.2,0.2-0.3,0.4-0.4,0.7c-0.1,0.3-0.1,0.6-0.1,0.9c0,0.3,0,0.6,0.1,0.9c0.1,0.3,0.2,0.5,0.4,0.7c0.2,0.2,0.4,0.3,0.7,0.4&#xA;&#x9;c0.3,0.1,0.6,0.2,1,0.2c0.8,0,1.2-0.2,1.4-0.3c0,0,0.1,0,0-0.1l-0.2-0.5c0-0.1-0.1,0-0.1,0c-0.2,0.1-0.5,0.2-1.1,0.2&#xA;&#x9;c-0.4,0-0.7-0.1-0.9-0.3c-0.2-0.2-0.3-0.5-0.3-0.9l2.7,0c0,0,0.1,0,0.1-0.1C43.5,24.5,43.6,24,43.5,23.4z M19.1,24&#xA;&#x9;c0-0.3,0.1-0.5,0.2-0.6c0.2-0.3,0.4-0.4,0.8-0.4c0.4,0,0.6,0.1,0.8,0.4C21,23.5,21,23.7,21,24H19.1L19.1,24z M21.8,23.4&#xA;&#x9;c-0.1-0.2-0.2-0.4-0.3-0.6c-0.1-0.2-0.3-0.3-0.5-0.4c-0.2-0.1-0.5-0.2-0.8-0.2c-0.3,0-0.6,0.1-0.9,0.2c-0.2,0.1-0.5,0.3-0.6,0.5&#xA;&#x9;c-0.2,0.2-0.3,0.4-0.4,0.7c-0.1,0.3-0.1,0.6-0.1,0.9c0,0.3,0,0.6,0.1,0.9c0.1,0.3,0.2,0.5,0.4,0.7c0.2,0.2,0.4,0.3,0.7,0.4&#xA;&#x9;c0.3,0.1,0.6,0.2,1,0.2c0.8,0,1.2-0.2,1.4-0.3c0,0,0.1,0,0-0.1l-0.2-0.5c0-0.1-0.1,0-0.1,0c-0.2,0.1-0.5,0.2-1.1,0.2&#xA;&#x9;c-0.4,0-0.7-0.1-0.9-0.3c-0.2-0.2-0.3-0.5-0.3-0.9l2.7,0c0,0,0.1,0,0.1-0.1C21.9,24.5,22,24,21.8,23.4z M13.3,25.7&#xA;&#x9;c-0.1,0-0.1-0.1-0.2-0.2C13,25.5,13,25.4,13,25.2c0-0.2,0.1-0.4,0.2-0.5c0,0,0.2-0.2,0.8-0.2c0.4,0,0.7,0.1,0.7,0.1v1.2&#xA;&#x9;c0,0-0.3,0.1-0.7,0.1C13.5,25.9,13.3,25.7,13.3,25.7z M14.3,23.9c-0.1,0-0.3,0-0.4,0c-0.2,0-0.5,0-0.7,0.1c-0.2,0.1-0.4,0.1-0.6,0.3&#xA;&#x9;c-0.2,0.1-0.3,0.3-0.4,0.4c-0.1,0.2-0.2,0.4-0.1,0.6c0,0.2,0,0.4,0.1,0.6c0.1,0.2,0.2,0.3,0.4,0.4c0.2,0.1,0.3,0.2,0.6,0.2&#xA;&#x9;c0.2,0,0.5,0.1,0.7,0.1c0.3,0,0.6,0,0.8-0.1c0.3,0,0.6-0.1,0.7-0.1c0.1,0,0.2,0,0.2,0c0.1,0,0.1-0.1,0.1-0.1l0-2.5&#xA;&#x9;c0-0.5-0.1-0.9-0.4-1.2c-0.3-0.2-0.7-0.4-1.2-0.4c-0.2,0-0.5,0-0.7,0.1c0,0-0.6,0.1-0.8,0.3c0,0-0.1,0,0,0.1l0.2,0.5&#xA;&#x9;c0,0.1,0.1,0,0.1,0s0,0,0,0c0.5-0.3,1.2-0.3,1.2-0.3c0.3,0,0.5,0.1,0.7,0.2c0.1,0.1,0.2,0.3,0.2,0.6v0.1&#xA;&#x9;C14.5,23.9,14.3,23.9,14.3,23.9L14.3,23.9z M36.1,22.5C36.2,22.4,36.2,22.4,36.1,22.5C36.1,22.4,36.1,22.4,36.1,22.5&#xA;&#x9;c-0.2-0.1-0.3-0.2-0.5-0.2c-0.3,0-0.5,0-0.7,0.1c-0.2,0.1-0.4,0.2-0.5,0.3v-0.3c0,0,0-0.1-0.1-0.1h-0.7c0,0-0.1,0-0.1,0.1v4&#xA;&#x9;c0,0,0,0.1,0.1,0.1h0.7c0,0,0.1,0,0.1-0.1v-2c0-0.3,0-0.5,0.1-0.7c0.1-0.2,0.1-0.3,0.2-0.4c0.1-0.1,0.2-0.2,0.3-0.2&#xA;&#x9;c0.1,0,0.2-0.1,0.4-0.1c0.1,0,0.3,0,0.3,0c0.1,0,0.1,0,0.1-0.1C36,22.9,36.1,22.5,36.1,22.5z M29.5,20.6c-0.2-0.1-0.4-0.1-0.6-0.1&#xA;&#x9;c-0.5,0-0.9,0.1-1.1,0.4c-0.3,0.3-0.5,0.7-0.5,1.2l0,0.2h-0.6c0,0-0.1,0-0.1,0.1L26.3,23c0,0.1,0,0.1,0.1,0.1H27l-0.6,3.4&#xA;&#x9;c0,0.3-0.1,0.5-0.2,0.7c-0.1,0.2-0.1,0.3-0.2,0.4c-0.1,0.1-0.1,0.2-0.2,0.2c-0.1,0-0.2,0-0.3,0c-0.1,0-0.2,0-0.2,0&#xA;&#x9;c-0.1,0-0.1,0-0.1,0c0,0-0.1,0-0.1,0c0,0.1-0.2,0.5-0.2,0.5c0,0.1,0,0.1,0,0.1c0.2,0.1,0.4,0.1,0.6,0.1c0.2,0,0.5,0,0.7-0.1&#xA;&#x9;c0.2-0.1,0.4-0.2,0.5-0.3c0.2-0.2,0.3-0.4,0.4-0.6c0.1-0.2,0.2-0.5,0.2-0.9l0.6-3.4h0.9c0,0,0.1,0,0.1-0.1l0.1-0.6&#xA;&#x9;c0-0.1,0-0.1-0.1-0.1H28c0,0,0-0.3,0.1-0.6c0-0.1,0.1-0.2,0.2-0.3c0.1-0.1,0.1-0.1,0.2-0.1c0.1,0,0.2,0,0.3,0c0.1,0,0.2,0,0.2,0&#xA;&#x9;c0.1,0,0.1,0,0.1,0c0.1,0,0.1,0,0.1,0L29.5,20.6C29.5,20.6,29.5,20.6,29.5,20.6z M17.4,26.4v-5.7c0,0,0-0.1-0.1-0.1h-0.7&#xA;&#x9;c0,0-0.1,0-0.1,0.1v5.7c0,0,0,0.1,0.1,0.1L17.4,26.4C17.4,26.5,17.4,26.5,17.4,26.4z"/></svg>