<svg version="1.1" id="Brand-icon-slack-color" xmlns="http://www.w3.org/2000/svg" xmlns:xlink="http://www.w3.org/1999/xlink" x="0px" y="0px" viewBox="0 0 24 24" style="enable-background:new 0 0 24 24;" xml:space="preserve"><path style="fill:#E01E5A;" d="M5.6,14.9c0,1.3-1,2.3-2.3,2.3S1,16.2,1,14.9c0-1.3,1-2.3,2.3-2.3h2.3V14.9z"/><path style="fill:#E01E5A;" d="M6.8,14.9c0-1.3,1-2.3,2.3-2.3s2.3,1,2.3,2.3v5.8c0,1.3-1,2.3-2.3,2.3s-2.3-1-2.3-2.3&#xA;&#x9;C6.8,20.7,6.8,14.9,6.8,14.9z"/><path style="fill:#36C5F0;" d="M9.1,5.6c-1.3,0-2.3-1-2.3-2.3S7.8,1,9.1,1s2.3,1,2.3,2.3v2.3H9.1z"/><path style="fill:#36C5F0;" d="M9.1,6.8c1.3,0,2.3,1,2.3,2.3s-1,2.3-2.3,2.3H3.3C2,11.4,1,10.4,1,9.1s1-2.3,2.3-2.3&#xA;&#x9;C3.3,6.8,9.1,6.8,9.1,6.8z"/><path style="fill:#2EB67D;" d="M18.4,9.1c0-1.3,1-2.3,2.3-2.3c1.3,0,2.3,1,2.3,2.3s-1,2.3-2.3,2.3h-2.3V9.1z"/><path style="fill:#2EB67D;" d="M17.2,9.1c0,1.3-1,2.3-2.3,2.3c-1.3,0-2.3-1-2.3-2.3V3.3c0-1.3,1-2.3,2.3-2.3c1.3,0,2.3,1,2.3,2.3&#xA;&#x9;V9.1z"/><path style="fill:#ECB22E;" d="M14.9,18.4c1.3,0,2.3,1,2.3,2.3c0,1.3-1,2.3-2.3,2.3c-1.3,0-2.3-1-2.3-2.3v-2.3H14.9z"/><path style="fill:#ECB22E;" d="M14.9,17.2c-1.3,0-2.3-1-2.3-2.3c0-1.3,1-2.3,2.3-2.3h5.8c1.3,0,2.3,1,2.3,2.3c0,1.3-1,2.3-2.3,2.3&#xA;&#x9;&#x9;&#x9;H14.9z"/></svg>