<svg version="1.1" id="Brand-icon-react" xmlns="http://www.w3.org/2000/svg" xmlns:xlink="http://www.w3.org/1999/xlink" x="0px" y="0px" viewBox="0 0 24 24" style="enable-background:new 0 0 24 24;" xml:space="preserve"><path d="M20.3,8.3C19.9,8.1,19.4,8,19,7.8c0.1-0.5,0.2-0.9,0.3-1.4c0.4-2.6,0-4.4-1.3-5.1&#xA;&#x9;&#x9;C17.6,1.1,17.2,1,16.8,1c-1.3,0-3,1-4.8,2.7C10.3,2,8.6,1,7.2,1C6.8,1,6.4,1.1,6,1.3C4.8,2,4.3,3.9,4.7,6.5C4.8,6.9,4.9,7.4,5,7.8&#xA;&#x9;&#x9;C4.6,8,4.1,8.1,3.7,8.3C1.3,9.2,0,10.5,0,12s1.3,2.8,3.7,3.7C4.1,15.9,4.6,16,5,16.2c-0.1,0.5-0.2,0.9-0.3,1.4&#xA;&#x9;&#x9;c-0.4,2.6,0,4.4,1.3,5.1C6.4,22.9,6.8,23,7.2,23c1.4,0,3.1-1,4.8-2.7c1.7,1.7,3.4,2.7,4.8,2.7c0.5,0,0.9-0.1,1.2-0.3&#xA;&#x9;&#x9;c1.2-0.7,1.7-2.6,1.3-5.1c-0.1-0.5-0.2-0.9-0.3-1.4c0.5-0.1,0.9-0.3,1.3-0.5c2.4-0.9,3.7-2.2,3.7-3.7S22.7,9.2,20.3,8.3z M16.8,2.1&#xA;&#x9;&#x9;c0.2,0,0.5,0.1,0.7,0.2c0.8,0.5,1.1,1.9,0.7,4c-0.1,0.4-0.2,0.8-0.3,1.3c-1-0.2-2.1-0.4-3.2-0.5c-0.7-0.9-1.3-1.8-2-2.6&#xA;&#x9;&#x9;C14.2,3.1,15.6,2.1,16.8,2.1z M7.7,14.5c0.2,0.4,0.5,0.8,0.7,1.2c-0.7-0.1-1.4-0.2-2.1-0.4c0.2-0.6,0.4-1.3,0.7-2&#xA;&#x9;&#x9;C7.3,13.7,7.5,14.1,7.7,14.5z M6.4,8.7C7,8.5,7.7,8.4,8.4,8.3C8.2,8.7,8,9,7.7,9.5c-0.2,0.4-0.4,0.8-0.7,1.2&#xA;&#x9;&#x9;C6.8,10,6.6,9.3,6.4,8.7z M7.7,12c0.3-0.6,0.7-1.3,1-2C9,9.4,9.5,8.8,9.9,8.1c0.7-0.1,1.4-0.1,2.1-0.1c0.7,0,1.5,0,2.1,0.1&#xA;&#x9;&#x9;c0.4,0.6,0.8,1.3,1.2,1.9c0.4,0.6,0.7,1.3,1,2c-0.3,0.6-0.7,1.3-1,2c-0.3,0.6-0.7,1.3-1.2,1.9c-0.7,0.1-1.4,0.1-2.1,0.1&#xA;&#x9;&#x9;c-0.7,0-1.5,0-2.1-0.1C9.4,15.2,9,14.6,8.7,14C8.3,13.3,8,12.6,7.7,12z M16.3,14.5c0.2-0.4,0.4-0.8,0.7-1.2c0.3,0.7,0.5,1.4,0.7,2&#xA;&#x9;&#x9;c-0.7,0.2-1.3,0.3-2.1,0.4C15.8,15.3,16,15,16.3,14.5z M16.3,9.5l-0.7-1.2c0.7,0.1,1.4,0.2,2.1,0.4c-0.2,0.6-0.4,1.3-0.7,2&#xA;&#x9;&#x9;C16.7,10.3,16.5,9.9,16.3,9.5z M13.3,7c-0.4,0-0.9,0-1.3,0s-0.9,0-1.3,0c0.4-0.6,0.9-1.1,1.3-1.6C12.5,5.9,12.9,6.4,13.3,7z&#xA;&#x9;&#x9; M6.5,2.3C6.7,2.2,7,2.1,7.2,2.1c1.2,0,2.6,1,4,2.4c-0.7,0.7-1.3,1.6-2,2.6C8.1,7.2,7.1,7.4,6.1,7.6C6,7.1,5.9,6.7,5.8,6.3&#xA;&#x9;&#x9;C5.5,4.2,5.8,2.8,6.5,2.3z M5.3,15.1c-2.6-0.8-4.2-2-4.2-3.1c0-0.9,1.1-1.9,3-2.6c0.4-0.2,0.8-0.3,1.2-0.4c0.3,1,0.7,2,1.2,3.1&#xA;&#x9;&#x9;C6,13.1,5.6,14.1,5.3,15.1z M7.2,21.9c-0.2,0-0.5-0.1-0.7-0.2c-0.8-0.5-1.1-1.9-0.7-4c0.1-0.4,0.2-0.8,0.3-1.3&#xA;&#x9;&#x9;c1,0.2,2.1,0.4,3.2,0.5c0.7,0.9,1.3,1.8,2,2.6C9.8,20.9,8.4,21.9,7.2,21.9z M10.7,17c0.4,0,0.9,0,1.3,0s0.9,0,1.3,0&#xA;&#x9;&#x9;c-0.4,0.6-0.9,1.1-1.3,1.6C11.5,18.1,11.1,17.6,10.7,17z M17.5,21.7c-0.2,0.1-0.4,0.2-0.7,0.2c-1.2,0-2.6-1-4-2.4&#xA;&#x9;&#x9;c0.7-0.7,1.3-1.6,2-2.6c1.1-0.1,2.2-0.3,3.2-0.5c0.1,0.5,0.2,0.9,0.3,1.3C18.5,19.8,18.2,21.2,17.5,21.7z M19.9,14.6&#xA;&#x9;&#x9;c-0.4,0.2-0.8,0.3-1.2,0.4c-0.3-1-0.7-2-1.2-3.1c0.5-1,0.9-2.1,1.2-3.1c2.6,0.8,4.2,2,4.2,3.1C22.9,12.9,21.8,13.9,19.9,14.6z"/><ellipse cx="12" cy="12" rx="2.2" ry="2.2"/></svg>