<svg version="1.1" id="Brand-icon-zoho" xmlns="http://www.w3.org/2000/svg" xmlns:xlink="http://www.w3.org/1999/xlink" x="0px" y="0px" viewBox="0 0 50 50" style="enable-background:new 0 0 50 50;" xml:space="preserve"><path d="M41.9,42.3c-0.4-0.6-1-1.1-1.6-1.5c-0.7-0.4-1.6-0.7-2.7-0.8c-1.2-0.2-2.4-0.3-3.6-0.2&#xA;&#x9;l-15.7,0.1c0.3-1.1,1.2-2.5,2.5-4.2c1.5-1.9,3.6-4,6.3-6.5l0,0l2.1-2c0.3-0.3,0.8-0.8,1.5-1.3c4.2-3.9,6.9-7.1,8.2-9.8&#xA;&#x9;c0.9-1.9,1.5-3.9,1.9-6c0.2-1.2,0.3-2.3,0.2-3.5c0-1.1-0.1-2-0.4-2.7C40.3,3,39.9,2.4,39.4,2C38.8,1.5,38,1.2,36.8,1&#xA;&#x9;c-0.9-0.1-2.1-0.2-3.5-0.2L15.2,0.9c-2.2,0-3.9,0.4-5,1.1C9.3,2.6,8.7,3.6,8.5,4.6c0,0.3-0.1,0.6-0.1,0.9c0,1.5,0.6,2.7,1.8,3.4&#xA;&#x9;c0.7,0.4,1.6,0.7,2.6,0.9c0.7,0.1,1.5,0.2,2.4,0.2l15.2,0c-0.1,1.2-0.4,2.3-1,3.3c-0.6,1.1-2,2.6-4.1,4.5c-0.6,0.5-1.5,1.3-2.7,2.4&#xA;&#x9;c-4.7,4-8.2,7.5-10.5,10.6v0c-1.6,2.1-2.8,4.2-3.6,6.3c-0.5,1.2-0.8,2.4-1,3.6c-0.1,0.9-0.2,1.7-0.2,2.5c0,1.2,0.2,2.2,0.4,3&#xA;&#x9;c0.3,0.8,0.7,1.4,1.3,1.9c0.5,0.4,1.4,0.6,2.5,0.8c1.5,0.2,3.5,0.3,6.1,0.3l16.5-0.1c2.9,0,5-0.4,6.3-1.1c1-0.5,1.7-1.5,1.8-2.7&#xA;&#x9;c0-0.3,0.1-0.6,0.1-0.9C42.5,43.6,42.3,42.9,41.9,42.3L41.9,42.3z"/></svg>