<svg version="1.1" id="Brand-icon-wordpress" xmlns="http://www.w3.org/2000/svg" xmlns:xlink="http://www.w3.org/1999/xlink" x="0px" y="0px" viewBox="0 0 24 24" style="enable-background:new 0 0 24 24;" xml:space="preserve"><path d="M12,23c6.1,0,11-4.9,11-11c0-6-4.9-10.9-10.7-11C6.1,0.9,1,5.9,1,11.9C1,18.1,5.9,23,12,23z M12,1.5&#xA;&#x9;c5.8,0,10.5,4.7,10.5,10.6c0,5.6-4.8,10.3-10.5,10.3c-5.8,0-10.5-4.7-10.5-10.5C1.5,6.2,6.3,1.5,12,1.5z M7.6,7.1&#xA;&#x9;c0.1,0.3-0.2,0.4-0.5,0.4c-0.3,0-0.6,0-0.9,0.1c1.1,3.4,2.3,6.7,3.4,10.2c0.1-0.1,0.1-0.2,0.1-0.2c0.6-1.9,1.3-3.8,1.9-5.7&#xA;&#x9;c0.1-0.2,0-0.4,0-0.6c-0.3-0.9-0.7-1.9-1-2.8c-0.2-0.7-0.5-1.1-1.2-1c-0.1,0-0.3-0.3-0.4-0.4C9.1,7,9.3,6.8,9.5,6.8&#xA;&#x9;c1.6,0,3.1,0,4.7,0c0.2,0,0.4,0.2,0.5,0.3c-0.2,0.1-0.3,0.4-0.5,0.4c-0.3,0.1-0.6,0.1-1,0.1c1.1,3.4,2.3,6.7,3.4,10.2&#xA;&#x9;c0.5-1.7,1-3.3,1.5-4.9c0.4-1.4,0.2-2.7-0.6-4c-0.2-0.4-0.5-0.7-0.6-1.1c-0.1-0.5-0.3-1-0.2-1.5c0.1-0.8,0.7-1.2,1.6-1.3&#xA;&#x9;C13.8,0.9,6.8,2.4,4.2,6.9c1,0,2-0.1,2.9-0.1C7.3,6.8,7.6,6.9,7.6,7.1L7.6,7.1z M9.4,20.8c0,0.1,0,0.1,0,0.2&#xA;&#x9;c1.9,0.5,3.8,0.5,5.8-0.2l-3-8.1C11.2,15.5,10.3,18.2,9.4,20.8z M7.9,20.5L3.4,8.2C1.4,12.1,2.9,18.1,7.9,20.5z M21.4,12.6&#xA;&#x9;c0.1-1.9-0.5-4.4-1.1-4.8c-0.1,0.7,0,1.4-0.2,2.1c-0.5,1.6-1,3.2-1.6,4.8c-0.6,1.7-1.2,3.5-1.8,5.2C19.6,18.3,21.2,15.9,21.4,12.6z"/></svg>