<svg version="1.1" id="Brand-icon-drupal" xmlns="http://www.w3.org/2000/svg" xmlns:xlink="http://www.w3.org/1999/xlink" x="0px" y="0px" viewBox="0 0 24 24" style="enable-background:new 0 0 24 24;" xml:space="preserve"><path d="M17,5.1c-1.2-0.7-2.3-1-3.4-1.7C12.9,3,12,1.9,11.2,1C11,2.5,10.6,3.1,10,3.5&#xA;&#x9;C8.9,4.3,8.2,4.6,7.2,5.1C6.4,5.5,2,8,2,13.5C2,19,6.8,23,12.1,23c5.3,0,9.9-3.7,9.9-9.3S17.7,5.5,17,5.1z M17.1,21&#xA;&#x9;c-0.1,0.1-1.1,0.8-2.3,0.9C13.6,22,12,22.1,11,21.2c-0.2-0.1-0.1-0.4,0-0.4c0.1-0.1,0.2-0.1,0.3-0.1s0.1,0,0.2,0&#xA;&#x9;c0.4,0.3,1.1,0.6,2.5,0.6c1.4,0,2.4-0.4,2.8-0.7c0.2-0.1,0.3,0,0.3,0.1C17.2,20.7,17.3,20.9,17.1,21z M13.3,19.1&#xA;&#x9;c0.2-0.2,0.6-0.6,1-0.7c0.4-0.1,0.6-0.1,0.9-0.1c0.4,0,0.7,0,1,0.2c0.3,0.2,0.4,0.6,0.5,0.8c0.1,0.2,0,0.3-0.2,0.4&#xA;&#x9;c-0.2,0.1-0.2,0-0.3-0.2c-0.2-0.3-0.3-0.6-1.1-0.6s-1,0.3-1.4,0.6c-0.4,0.3-0.5,0.4-0.6,0.2C13,19.5,13,19.3,13.3,19.1z M19.1,19.2&#xA;&#x9;c-0.8-0.1-2.4-2.4-3.4-2.5c-1.3,0-4.1,2.6-6.2,2.6c-1.3,0-1.7-0.2-2.2-0.5c-0.7-0.4-1-1.1-1-2.1c0-1.7,1.6-3.2,3.7-3.2&#xA;&#x9;c2.6,0,4.4,2.5,5.7,2.4c1.1,0,3.2-2.1,4.3-2.1c1.1,0,1.4,1.1,1.4,1.8c0,0.7-0.2,1.8-0.7,2.6C20,19,19.7,19.3,19.1,19.2z"/></svg>