<svg version="1.1" id="Brand-icon-linkedin" xmlns="http://www.w3.org/2000/svg" xmlns:xlink="http://www.w3.org/1999/xlink" x="0px" y="0px" viewBox="0 0 24 24" style="enable-background:new 0 0 24 24;" xml:space="preserve"><path class="st0" d="M21.4,1H2.6C1.7,1,1,1.7,1,2.6v18.8C1,22.3,1.7,23,2.6,23h18.7c0.9,0,1.6-0.7,1.6-1.6V2.6C23,1.7,22.3,1,21.4,1&#xA;&#x9;z M7.5,19.7H4.3V9.2h3.3V19.7z M5.9,7.8C4.8,7.8,4,7,4,5.9S4.8,4,5.9,4c1,0,1.9,0.8,1.9,1.9S6.9,7.8,5.9,7.8z M19.7,19.7h-3.3v-5.1&#xA;&#x9;c0-1.2,0-2.8-1.7-2.8c-1.7,0-2,1.3-2,2.7v5.2H9.6V9.2h3.1v1.4h0C13.2,9.9,14.2,9,15.8,9c3.3,0,3.9,2.2,3.9,5V19.7z"/></svg>