<svg version="1.1" id="Brand-icon-express" xmlns="http://www.w3.org/2000/svg" xmlns:xlink="http://www.w3.org/1999/xlink" x="0px" y="0px" viewBox="0 0 24 24" style="enable-background:new 0 0 24 24;" xml:space="preserve"><path d="M24,18.6c-0.9,0.2-1.4,0-1.9-0.7c-1.1-1.6-2.3-3.2-3.4-4.8c-0.1-0.2-0.3-0.4-0.5-0.7c-1.4,1.9-2.7,3.6-4,5.5&#xA;&#x9;&#x9;c-0.5,0.7-0.9,0.9-1.8,0.7l5.2-7l-4.8-6.3c0.8-0.2,1.4-0.1,1.9,0.7c1.1,1.6,2.3,3.2,3.6,4.9c1.2-1.6,2.5-3.2,3.6-4.8&#xA;&#x9;&#x9;c0.5-0.7,1-0.9,1.8-0.7c-0.6,0.8-1.2,1.7-1.9,2.5c-0.8,1.1-1.7,2.2-2.5,3.3c-0.3,0.4-0.3,0.6,0,1C20.8,14.3,22.4,16.4,24,18.6z"/><path d="M0,11.6c0.1-0.7,0.2-1.4,0.4-2.1c1.1-4.1,5.9-5.8,9.1-3.3c1.9,1.5,2.4,3.6,2.3,6H1.1C0.9,16.5,4,19,7.9,17.7&#xA;&#x9;&#x9;c1.4-0.5,2.2-1.5,2.6-2.9c0.2-0.7,0.5-0.8,1.2-0.6c-0.3,1.7-1.1,3.1-2.6,4c-2.3,1.3-5.6,0.9-7.3-0.9c-1-1.1-1.5-2.4-1.6-3.9&#xA;&#x9;&#x9;C0.1,13.2,0,13,0,12.7C0,12.3,0,12,0,11.6z M1.1,11.3h9.7C10.7,8.2,8.8,6,6.2,6C3.3,6,1.3,8.1,1.1,11.3z"/></svg>