<svg version="1.1" id="Brand-icon-hubspot" xmlns="http://www.w3.org/2000/svg" xmlns:xlink="http://www.w3.org/1999/xlink" x="0px" y="0px" viewBox="0 0 24 24" style="enable-background:new 0 0 24 24;" xml:space="preserve"><path d="M21.3,11.5L21.3,11.5c-0.5-0.8-1.2-1.5-2.1-2c-0.6-0.4-1.3-0.6-2.1-0.7V6.1c0.8-0.3,1.2-1,1.2-1.8&#xA;&#x9;c0-1.1-0.9-2-2-2c-1.1,0-2.1,0.9-2.1,2c0,0.8,0.4,1.5,1.2,1.8v2.7c-0.6,0.1-1.2,0.3-1.8,0.6c-1.2-0.9-5-3.8-7.3-5.4&#xA;&#x9;c0.1-0.2,0.1-0.4,0.1-0.6C6.5,2,5.5,1,4.3,1S2,2,2,3.2c0,1.2,1,2.2,2.3,2.2c0.4,0,0.8-0.1,1.2-0.3l0.5,0.4l6.5,4.6&#xA;&#x9;c-0.3,0.3-0.7,0.7-0.9,1.1c-0.5,0.8-0.8,1.7-0.8,2.7v0.2c0,0.7,0.1,1.3,0.4,1.9c0.2,0.5,0.5,1,0.8,1.4l-2.2,2.1&#xA;&#x9;c-0.6-0.2-1.4-0.1-1.8,0.4c-0.3,0.3-0.5,0.8-0.5,1.2c0,0.5,0.2,0.9,0.5,1.2C8.2,22.8,8.6,23,9.1,23c0.5,0,0.9-0.2,1.2-0.5&#xA;&#x9;c0.3-0.3,0.5-0.8,0.5-1.2c0-0.2,0-0.4-0.1-0.5l2.2-2.2c0.3,0.2,0.6,0.4,1,0.5c0.7,0.3,1.5,0.5,2.3,0.5h0.2c0.9,0,1.8-0.2,2.6-0.7&#xA;&#x9;c0.9-0.5,1.6-1.1,2.1-1.9c0.5-0.8,0.8-1.7,0.8-2.7v0C22,13.2,21.8,12.3,21.3,11.5z M18.6,16.1L18.6,16.1c-0.6,0.7-1.3,1.1-2.1,1.1&#xA;&#x9;h-0.1c-0.4,0-0.9-0.1-1.3-0.3c-0.5-0.2-0.9-0.6-1.2-1c-0.3-0.4-0.5-0.9-0.5-1.4v-0.2c0-0.5,0.1-1,0.3-1.4c0.3-0.5,0.6-0.9,1.1-1.2&#xA;&#x9;c0.5-0.3,0.9-0.4,1.5-0.4h0.1c0.5,0,1,0.1,1.4,0.3c0.4,0.2,0.8,0.6,1.1,1c0.3,0.4,0.4,0.9,0.5,1.4c0,0.1,0,0.2,0,0.3&#xA;&#x9;C19.3,14.9,19.1,15.5,18.6,16.1z"/></svg>