<svg version="1.1" id="Brand-icon-chime" xmlns="http://www.w3.org/2000/svg" xmlns:xlink="http://www.w3.org/1999/xlink" x="0px" y="0px" viewBox="0 0 50 50" style="enable-background:new 0 0 50 50;" xml:space="preserve"><g id="App-Icon_x2F_Chime"><g id="amazon-chime-seeklogo.com-2" transform="translate(1.000000, 1.000000)"><polygon points="31.6,23.1 31.6,17.7 29.6,18.8 31.6,23.2"/><polygon points="36.6,19.4 44.9,11.1 31.6,17.7"/><polygon points="31.6,24.2 29.9,28.8 29.9,28.8 33.7,25 36.1,29.6 47.9,29.6"/><polygon points="31.6,17.7 31.6,23.1 47.9,23.1 36.6,19.4"/><polygon points="31.6,23.1 31.6,23.2 31.6,24.2 47.9,29.6 47.9,23.1"/><polygon points="24.7,31.6 30.1,31.6 28.5,36.5 36.8,44.9 29.1,29.5"/><polygon points="29.9,28.8 41.4,40.3 36.1,29.6 33.7,25"/><polygon points="29.9,28.8 29.9,28.8 29.1,29.5 36.8,44.9 41.4,40.3"/><polygon points="19.1,29.9 19.1,29.9 22.9,33.7 18.2,36 18.2,47.8 23.6,31.6"/><polygon points="24.7,31.6 24.7,31.6 24.7,47.8 28.5,36.5 30.1,31.6"/><polygon points="24.7,31.6 23.6,31.6 18.2,47.8 24.7,47.8"/><polygon points="11.3,28.5 3,36.8 16.3,30.1"/><polygon points="16.3,24.7 16.3,30.1 18.3,29.1"/><polygon points="19.1,29.9 7.6,41.4 18.2,36 22.9,33.7"/><polygon points="19.1,29.9 19.1,29.9 18.3,29.1 16.3,30.1 16.3,30.1 16.3,30.1 3,36.8 &#xA;&#x9;&#x9;&#x9;7.6,41.4"/><polygon points="18,19.1 18,19.1 14.2,22.9 11.8,18.2 0,18.2 16.3,23.6"/><polygon points="16.3,30.1 16.3,30.1 16.3,24.7 0,24.7 11.3,28.5"/><polygon points="16.3,24.7 16.3,24.7 16.3,23.6 0,18.2 0,24.7"/><polygon points="23.1,16.3 17.8,16.3 19.4,11.3 11.1,3 18.8,18.3"/><polygon points="18,19.1 6.5,7.6 11.8,18.2 14.2,22.9"/><polygon points="18,19.1 18,19.1 18.8,18.3 11.1,3 6.5,7.6"/><polygon points="28.8,18 28.8,18 25,14.2 29.7,11.8 29.7,0 24.3,16.3"/><polygon points="23.1,16.3 23.2,16.3 23.2,0 19.4,11.3 17.8,16.3"/><polygon points="23.2,16.3 24.3,16.3 29.7,0 23.2,0"/><polygon points="28.8,18 40.3,6.5 29.7,11.8 25,14.2"/><polygon points="28.8,18 28.8,18 29.6,18.8 31.6,17.7 31.6,17.7 44.9,11.1 40.3,6.5"/></g></g></svg>