<svg version="1.1" id="Brand-icon-jobdiva-color" xmlns="http://www.w3.org/2000/svg" xmlns:xlink="http://www.w3.org/1999/xlink" x="0px" y="0px" viewBox="0 0 50 50" style="enable-background:new 0 0 50 50;" xml:space="preserve"><path id="Path" style="fill:#42BAEB;" d="M23.8,45.7c0.9-2.7,1.7-5.2,2.6-7.9c3.8-0.3,8.3,0.3,11.5-3.5c2.4-2.8,3-6.2,2.9-9.7&#xA;&#x9;c-0.1-8.1-3.6-11.2-14.7-13V4.2c6.9,0.1,13.4,0.7,18.1,6.6c5.6,7.1,6.4,18.4,1.8,26.1c-2.7,4.5-6.5,7.5-12,8&#xA;&#x9;C30.5,45.3,27.1,45.5,23.8,45.7L23.8,45.7z"/><path id="Path_1_" style="fill:#FAA91F;" d="M1,40.8c2-1.9,4-3.7,6-5.6c1.2,1,2.1,2,3.3,2.7c2.8,1.8,4.9,0.7,5-2.6&#xA;&#x9;c0.1-9.5,0.1-19,0.1-28.5V4.4h7.9c0.1,0.2,0.2,0.5,0.2,0.7c0,10.5,0,20.9-0.2,31.4c-0.1,5-2.4,8.3-6.4,9.4C12,47.3,7.6,46.2,3.7,43&#xA;&#x9;C2.9,42.3,2,41.7,1,40.8L1,40.8z"/></svg>