<svg version="1.1" id="Brand-icon-vonage-color" xmlns="http://www.w3.org/2000/svg" xmlns:xlink="http://www.w3.org/1999/xlink" x="0px" y="0px" viewBox="0 0 24 24" style="enable-background:new 0 0 24 24;" xml:space="preserve"><path style="fill:#1494ED;" d="M15.5,4.8c0,2.1-1.6,3.8-3.5,3.8S8.4,6.9,8.4,4.8S10,1,12,1C13.9,1.1,15.5,2.8,15.5,4.8"/><path style="fill:#FF8F02;" d="M1.6,3.5C1.2,2,2.5,1.9,2.8,2.6c3.3,6.9,7.6,15.3,9.3,15.3s5.9-8.3,9.2-15.3c0.3-0.8,1.6-0.6,1.2,0.8&#xA;&#x9;C19.8,12,15.7,23,12.1,23C8.3,23,4.2,12,1.6,3.5"/></svg>