<svg version="1.1" id="Brand-icon-clio" xmlns="http://www.w3.org/2000/svg" xmlns:xlink="http://www.w3.org/1999/xlink" x="0px" y="0px" viewBox="0 0 50 50" style="enable-background:new 0 0 50 50;" xml:space="preserve"><path d="M15.2,17.7l9.9,6.6L48.7,3.3c-12,16.8-18.6,25.9-19.8,27.5c-1.8,2.4-4.9,3.2-6.7,0&#xA;&#x9;C21,28.7,18.7,24.3,15.2,17.7L15.2,17.7z"/><path d="M25,49.2C11.7,49.2,0.8,38.3,0.8,25S11.7,0.8,25,0.8S49.2,11.7,49.2,25&#xA;&#x9;S38.3,49.2,25,49.2z M16.7,8.2c-4.7,0-8.5,3.8-8.5,8.5v16.6c0,2.3,0.9,4.4,2.5,6s3.8,2.5,6,2.5h16.6c4.7,0,8.5-3.8,8.5-8.5V16.7&#xA;&#x9;c0-4.7-3.8-8.5-8.5-8.5H16.7L16.7,8.2z"/></svg>