<svg version="1.1" id="Brand-icon-bullhorn-color" xmlns="http://www.w3.org/2000/svg" xmlns:xlink="http://www.w3.org/1999/xlink" x="0px" y="0px" viewBox="0 0 50 50" style="enable-background:new 0 0 50 50;" xml:space="preserve"><path style="fill:#FF6B03;" d="M48.1,27.9c0,0.5,0.4,0.9,0.2,1.4c-0.2,0.4-2.4,1.4-2.9,1.4c-0.5-0.1-0.9-0.5-1.3-0.3l0.1,2.7&#xA;&#x9;l-0.3,2.8l0.5,1.2c0.1,0.8-0.3,1.5-0.1,2.4c0.4,1.9,2.1,2.7,1.7,5.1L45.4,45c-0.2-0.1-0.4-0.2-0.6-0.2l-0.2,0.7&#xA;&#x9;c-0.3,0.1-0.7,0.1-1,0.1l-0.2-0.1c-0.4-2.9-0.5-5.5-1.3-8c-1-3-3.4-4-3.4-8.3l-0.1,0.1v0.1c-0.4,0.9,0.1,3-0.4,3.7&#xA;&#x9;c-0.7,1.1-2.6,1.2-3,2.5v0.5c0,0.1,1.1,2.3,1.2,2.3c0.7,0.5,2.7,0.6,2.3,2.3c-0.5,1.9-3,1.3-3.9,0.1c-0.4-0.5-0.5-1.2-0.8-1.8&#xA;&#x9;c-0.3-0.4-0.7-0.4-1.1-0.7c-0.8-0.6-0.9-3.2-1.6-3.8c-0.8-0.7-2.7-0.4-3.8-0.7c-2.3-0.5-4.4-1.4-5.9-2.8c-1-0.9-1.5-2.5-2.3-3.8&#xA;&#x9;c-1.1-1.7-2.4-3.5-3.9-4.8l-1.7-1.3c-1.7-0.6-4.7,1.6-5.9-0.2c-0.4-0.6-0.5-1.3-0.5-2.2c0-0.5-0.2-0.9-0.1-1.5&#xA;&#x9;c0.3-1.3,1.2-2,1.5-3.4l-0.1-0.1c-3.3,0-6.7-0.6-7.7-3.2c0.3-0.4,0.9,0.2,1.3,0.4c1.3,0.6,3.3,1,5.1,0.5l2.5-0.9&#xA;&#x9;c0.5-0.4,0.4-1.1,1-1.4C11.3,8.9,12.6,9,13,8.8c0.5-0.4,0.7-1.2,1.3-1.5c0.9-0.4,1.7-0.1,2.4,0.2c0.5,0.2,3.1-1.7,3.3-2V5.3&#xA;&#x9;c-1-1.1-3.4-1.9-4-3.1l-0.1-0.3L16,1.7c0.7,0,1.1,0.5,1.7,0.8c1.3,0.6,5.1,1.2,5.5,2.7c0.4,1.6-2.5,3.7-3.4,4.2&#xA;&#x9;c0.1,0.3,0.2,0.3,0.5,0.2h1.5L21,10.5l0.1,0.3l0.1,0.2c0.4,0.1,0.6,0,1-0.1c0,0.5,0,0.8,0.2,1.1c1.1,0.2,2.6,0.3,3.4,0.8l0.8,0.8&#xA;&#x9;l1.5,0.4c1.7,0.6,3.2,1.4,4.1,2.8c0.6,1,1,2.4,1.4,3.6c0.2,0.7,0.3,1.5,0.6,2h0.1c0-1.3-1-4.5-0.7-5.1l0.2-0.2&#xA;&#x9;c1.8-0.1,6.8,2.6,7.7,3.8c0.4,0.6,0.4,1.1,0.6,2l0.9,1.4c0.8,1.6,0.5,4.7,2.2,5.2C46.7,30.2,46.9,28.1,48.1,27.9L48.1,27.9z"/><path style="fill:#FF6B03;" d="M32.5,39l0.4,1.5c1,2.1,3.2,3.1,3.6,5.9c-0.2,0.3-0.6,0.5-1,0.6c-0.1-0.2-0.1-0.2-0.4-0.2L35,46.9&#xA;&#x9;L35,47.5c-0.4,0.1-0.9,0-1.3-0.1c-0.2-0.6-0.1-1.1-0.3-1.9l-1.5-3.7l-1.1-1.1c-0.4-0.6-0.5-1.3-1-1.7c-0.6-0.5-1.5-0.7-2.2-1&#xA;&#x9;c-1.5-0.7-3.2-2.4-3.8-4.1c1.3,0.7,3.1,0.9,4.7,1.3l2.1,0.3L32.5,39z"/></svg>