<svg version="1.1" id="Brand-icon-netsuite" xmlns="http://www.w3.org/2000/svg" xmlns:xlink="http://www.w3.org/1999/xlink" x="0px" y="0px" viewBox="0 0 24 24" style="enable-background:new 0 0 24 24;" xml:space="preserve"><path d="M14.7,13.2c0-3.9,0-7.8,0-11.7c-4.6,0-9.2,0-13.7,0&#xA;&#x9;&#x9;c0,0.1,0,3.3,0,4.9c2.8,0,5.6,0,8.4,0C14.7,13.2,9.4,6.4,14.7,13.2z"/><path d="M14.6,17.5c-1.8-2.2-3.5-4.5-5.2-6.7c0,3.9,0,7.7,0,11.6&#xA;&#x9;&#x9;c4.6,0,9.1,0,13.7,0c0-1.7,0-3.3,0-5C20.2,17.5,17.4,17.5,14.6,17.5z"/><path d="M15.6,2.5c0,1.3,0,2.6,0,3.9c0,0,1.5,0,2.2,0&#xA;&#x9;&#x9;c0,3.4,0,6.9,0,10.3c1.4,0,2.9,0,4.3,0c0-4.7,0-9.5,0-14.2C19.9,2.5,17.7,2.5,15.6,2.5z"/><path d="M6.3,7.3c-1.4,0-2.9,0-4.3,0c0,4.7,0,9.5,0,14.2&#xA;&#x9;&#x9;c2.1,0,4.3,0,6.4,0c0-1.3,0-2.7,0-4c-0.7,0-1.4,0-2.1,0C6.3,14.1,6.3,10.7,6.3,7.3z"/></svg>