<svg version="1.1" id="Brand-icon-rails-color" xmlns="http://www.w3.org/2000/svg" xmlns:xlink="http://www.w3.org/1999/xlink" x="0px" y="0px" viewBox="0 0 24 24" style="enable-background:new 0 0 24 24;" xml:space="preserve"><path style="fill:#A62C46;" d="M20.1,3.2c-2.2-1.1-4.4-1.2-6.7-0.4c-2.1,0.7-3.8,2.1-5,3.9c-2.1,3.1-3.6,6.4-4.5,10&#xA;&#x9;c-0.4,1.9-0.7,3.8-0.6,5.7c0,0.2,0,0.2,0,0.6h10.7c0-0.4-0.1-0.3-0.1-0.3c-0.6-1.4-1-3-1.3-4.5c-0.4-2.2-0.7-4.4-0.2-6.6&#xA;&#x9;c0.6-3.1,2.4-5.3,5.3-6.5c1.7-0.7,3.3-0.5,4.7,0.8c0,0,0,0,0.1,0L23,5.2C22.1,4.4,21.2,3.7,20.1,3.2L20.1,3.2z M1.2,17.4&#xA;&#x9;c-0.1,0.7-0.2,1.4-0.2,2l2,0.2l0.4-2.1C2.6,17.5,1.9,17.4,1.2,17.4z M5.1,11.3l-1.9-0.7l-0.6,1.7l1.9,0.6&#xA;&#x9;C4.7,12.3,4.9,11.8,5.1,11.3z M13.9,20.8c0.6,0,1.3,0.1,2,0.1c-0.3-0.5-0.5-1-0.7-1.5c0-0.1-0.1-0.1-0.2-0.1c-0.5,0-1.1,0-1.6,0&#xA;&#x9;c0.1,0.5,0.2,0.9,0.4,1.3C13.7,20.8,13.8,20.8,13.9,20.8z M8.3,6.1L6.9,5.2C6.5,5.6,6.1,6,5.7,6.4l1.5,1L8.3,6.1z M12.8,15.6&#xA;&#x9;c0,0.1,0,0.1,0.1,0.2c0.5,0.2,1,0.4,1.6,0.7c0-0.4,0-0.8-0.1-1.2c0-0.1,0-0.2-0.1-0.2c-0.5-0.3-0.9-0.5-1.5-0.8&#xA;&#x9;C12.8,14.8,12.8,15.2,12.8,15.6z M12.3,2.8l-1-1.1L10,2.3c0.3,0.4,0.6,0.8,1,1.2C11,3.5,12.3,2.8,12.3,2.8z M12.9,11.5&#xA;&#x9;c0,0.1,0,0.2,0.1,0.3c0.4,0.3,0.8,0.7,1.2,1.1c0.1-0.4,0.2-0.8,0.3-1.2c0-0.1,0-0.2-0.1-0.2c-0.3-0.3-0.7-0.5-1.1-0.8&#xA;&#x9;C13.2,10.9,13.1,11.2,12.9,11.5z M15.2,2.2c0.5,0,1,0,1.5,0c-0.1-0.4-0.1-0.6-0.1-0.9c0-0.1-0.1-0.2-0.2-0.2c-0.5,0-1-0.1-1.5-0.1&#xA;&#x9;c0.1,0.4,0.1,0.7,0.2,1C15,2.1,15.1,2.2,15.2,2.2z M15.8,8.5c0,0,0-0.1,0-0.2C15.5,8,15.3,7.6,15,7.2L14.2,8l1.2,1.3&#xA;&#x9;C15.5,9,15.6,8.8,15.8,8.5z M16.7,5.9l0.5,0.9C18,6.4,18,6.3,17.8,5.7C17.8,5.7,16.7,5.9,16.7,5.9z M20.4,3c0.3,0.2,0.7,0.4,1,0.6&#xA;&#x9;l0.2-0.4c-0.4-0.3-0.8-0.6-1.3-1c0,0.2,0,0.3,0,0.5C20.4,2.8,20.4,3,20.4,3z M20,6c0.4,0,0.9,0.1,1.2,0.1V5.6&#xA;&#x9;c-0.4-0.1-0.9-0.2-1.2-0.2V6z"/></svg>