<svg version="1.1" id="Brand-icon-nexmo" xmlns="http://www.w3.org/2000/svg" xmlns:xlink="http://www.w3.org/1999/xlink" x="0px" y="0px" viewBox="0 0 24 24" style="enable-background:new 0 0 24 24;" xml:space="preserve"><path d="M12,14.2c-1.2,0-2.2-1-2.2-2.2c0-1.2,1-2.2,2.2-2.2c1.2,0,2.2,1,2.2,2.2&#xA;&#x9;C14.2,13.2,13.2,14.2,12,14.2z"/><path d="M18.2,10.4h-1.2l3,2.9l3-2.9h-1.5C20.9,5.7,16.8,2,11.8,2c-4.1,0-7.5,2.4-9,5.8L5.8,9&#xA;&#x9;c1-2.2,3.3-3.8,6-3.8C15,5.2,17.6,7.4,18.2,10.4z"/><path d="M12.2,18.8c-3.2,0-5.8-2.2-6.4-5.1h1.4l-3.1-3l-3.1,3h1.4c0.7,4.7,4.8,8.3,9.8,8.3&#xA;&#x9;c4.1,0,7.6-2.4,9.1-5.9l-3.1-1.2C17.1,17.2,14.8,18.8,12.2,18.8"/></svg>